<svg width="106" height="22" viewBox="0 0 106 22" fill="none" xmlns="http://www.w3.org/2000/svg">
<path d="M11.0233 12.9956H4.39653L2.80513 17.6946H-0.00170898L6.27505 0.309415H9.19125L15.468 17.6946H12.6133L11.0233 12.9956ZM5.08286 10.8272H10.3357L7.7462 3.20105H7.67374L5.08286 10.8272ZM29.0237 11.3577C29.0237 15.2966 26.9155 17.8272 23.734 17.8272C22.9281 17.8694 22.1266 17.6837 21.4213 17.2915C20.716 16.8993 20.1354 16.3165 19.746 15.6096H19.6857V21.8878H17.084V5.01941H19.6024V7.12761H19.6502C20.0576 6.42416 20.648 5.84429 21.3587 5.44971C22.0694 5.05512 22.8737 4.86058 23.6862 4.88679C26.9031 4.8868 29.0237 7.42976 29.0237 11.3577ZM26.3495 11.3577C26.3495 8.7915 25.0233 7.10437 22.9998 7.10437C21.012 7.10437 19.6748 8.82703 19.6748 11.3577C19.6748 13.9116 21.012 15.622 22.9998 15.622C25.0233 15.622 26.3495 13.9472 26.3495 11.3577ZM42.9745 11.3577C42.9745 15.2966 40.8663 17.8272 37.6848 17.8272C36.8789 17.8694 36.0774 17.6837 35.3721 17.2915C34.6668 16.8993 34.0862 16.3165 33.6967 15.6096H33.6365V21.8878H31.0348V5.01941H33.5531V7.12761H33.601C34.0083 6.42416 34.5987 5.8443 35.3094 5.44972C36.0201 5.05513 36.8245 4.86059 37.6369 4.8868C40.854 4.8868 42.9745 7.42976 42.9745 11.3577ZM40.3002 11.3577C40.3002 8.7915 38.9741 7.10437 36.9506 7.10437C34.9627 7.10437 33.6256 8.82703 33.6256 11.3577C33.6256 13.9116 34.9627 15.622 36.9506 15.622C38.9741 15.622 40.3002 13.9472 40.3002 11.3577ZM52.1948 12.8507C52.3876 14.5747 54.0624 15.7067 56.351 15.7067C58.544 15.7067 60.1217 14.5746 60.1217 13.0201C60.1217 11.6707 59.1702 10.8627 56.917 10.309L54.6639 9.76622C51.4715 8.99513 49.9895 7.50215 49.9895 5.07949C49.9895 2.07988 52.6036 0.0195312 56.3155 0.0195312C59.9891 0.0195312 62.5075 2.07988 62.5922 5.07949H59.9658C59.8086 3.34453 58.3744 2.29727 56.2785 2.29727C54.1826 2.29727 52.7485 3.35685 52.7485 4.89903C52.7485 6.12814 53.6645 6.85138 55.9053 7.40504L57.8207 7.87535C61.3877 8.71891 62.8697 10.1518 62.8697 12.6947C62.8697 15.9472 60.2789 17.9843 56.1582 17.9843C52.3027 17.9843 49.6996 15.9951 49.5315 12.8505L52.1948 12.8507ZM68.4848 2.0198V5.01941H70.8952V7.07976H68.4848V14.0675C68.4848 15.153 68.9674 15.6589 70.027 15.6589C70.3131 15.6539 70.5988 15.6338 70.8829 15.5987V17.6467C70.4065 17.7357 69.9223 17.776 69.4377 17.767C66.8715 17.767 65.8707 16.8031 65.8707 14.3449V7.07976H64.0278V5.01941H65.8707V2.0198H68.4848ZM72.2911 11.3577C72.2911 7.36961 74.6399 4.86356 78.3026 4.86356C81.9776 4.86356 84.3155 7.36956 84.3155 11.3577C84.3155 15.3567 81.99 17.8518 78.3026 17.8518C74.6166 17.8518 72.2911 15.3567 72.2911 11.3577ZM81.6645 11.3577C81.6645 8.62196 80.4108 7.00731 78.3026 7.00731C76.1944 7.00731 74.9421 8.63426 74.9421 11.3577C74.9421 14.1044 76.1944 15.7067 78.3026 15.7067C80.4108 15.7067 81.6645 14.1044 81.6645 11.3577ZM86.4606 5.01941H88.942V7.17681H89.0022C89.1701 6.50301 89.5649 5.90754 90.1201 5.4905C90.6753 5.07346 91.3572 4.86027 92.0511 4.88677C92.3509 4.88572 92.6499 4.91829 92.9425 4.98385V7.41744C92.564 7.30177 92.1691 7.24867 91.7735 7.26022C91.3955 7.24488 91.0187 7.31153 90.6689 7.45557C90.3191 7.59961 90.0047 7.81764 89.7471 8.09468C89.4895 8.37173 89.295 8.70123 89.1768 9.06057C89.0586 9.41991 89.0195 9.80057 89.0623 10.1764V17.6946H86.4606L86.4606 5.01941ZM104.938 13.9717C104.588 16.2727 102.347 17.8518 99.4803 17.8518C95.793 17.8518 93.5043 15.3813 93.5043 11.4178C93.5043 7.44206 95.8053 4.86355 99.3709 4.86355C102.878 4.86355 105.083 7.27252 105.083 11.1157V12.0071H96.1307V12.1643C96.0894 12.6308 96.1478 13.1007 96.302 13.5429C96.4563 13.9851 96.7029 14.3894 97.0254 14.729C97.3479 15.0685 97.7389 15.3356 98.1726 15.5124C98.6062 15.6892 99.0725 15.7718 99.5405 15.7545C100.155 15.8122 100.772 15.6698 101.3 15.3485C101.827 15.0273 102.237 14.5445 102.468 13.9717L104.938 13.9717ZM96.143 10.1887H102.48C102.503 9.7693 102.44 9.34957 102.293 8.95588C102.147 8.56218 101.92 8.20303 101.628 7.90096C101.336 7.59889 100.985 7.36042 100.597 7.20051C100.208 7.04061 99.7909 6.96273 99.3709 6.97175C98.9473 6.96922 98.5273 7.05062 98.1352 7.21126C97.7432 7.3719 97.3868 7.60859 97.0867 7.90768C96.7866 8.20677 96.5487 8.56233 96.3867 8.95384C96.2248 9.34535 96.1419 9.76505 96.143 10.1887Z" fill="white"/>
<path d="M11.0233 12.9956H4.39653L2.80513 17.6946H-0.00170898L6.27505 0.309415H9.19125L15.468 17.6946H12.6133L11.0233 12.9956ZM5.08286 10.8272H10.3357L7.7462 3.20105H7.67374L5.08286 10.8272ZM29.0237 11.3577C29.0237 15.2966 26.9155 17.8272 23.734 17.8272C22.9281 17.8694 22.1266 17.6837 21.4213 17.2915C20.716 16.8993 20.1354 16.3165 19.746 15.6096H19.6857V21.8878H17.084V5.01941H19.6024V7.12761H19.6502C20.0576 6.42416 20.648 5.84429 21.3587 5.44971C22.0694 5.05512 22.8737 4.86058 23.6862 4.88679C26.9031 4.8868 29.0237 7.42976 29.0237 11.3577ZM26.3495 11.3577C26.3495 8.7915 25.0233 7.10437 22.9998 7.10437C21.012 7.10437 19.6748 8.82703 19.6748 11.3577C19.6748 13.9116 21.012 15.622 22.9998 15.622C25.0233 15.622 26.3495 13.9472 26.3495 11.3577ZM42.9745 11.3577C42.9745 15.2966 40.8663 17.8272 37.6848 17.8272C36.8789 17.8694 36.0774 17.6837 35.3721 17.2915C34.6668 16.8993 34.0862 16.3165 33.6967 15.6096H33.6365V21.8878H31.0348V5.01941H33.5531V7.12761H33.601C34.0083 6.42416 34.5987 5.8443 35.3094 5.44972C36.0201 5.05513 36.8245 4.86059 37.6369 4.8868C40.854 4.8868 42.9745 7.42976 42.9745 11.3577ZM40.3002 11.3577C40.3002 8.7915 38.9741 7.10437 36.9506 7.10437C34.9627 7.10437 33.6256 8.82703 33.6256 11.3577C33.6256 13.9116 34.9627 15.622 36.9506 15.622C38.9741 15.622 40.3002 13.9472 40.3002 11.3577ZM52.1948 12.8507C52.3876 14.5747 54.0624 15.7067 56.351 15.7067C58.544 15.7067 60.1217 14.5746 60.1217 13.0201C60.1217 11.6707 59.1702 10.8627 56.917 10.309L54.6639 9.76622C51.4715 8.99513 49.9895 7.50215 49.9895 5.07949C49.9895 2.07988 52.6036 0.0195312 56.3155 0.0195312C59.9891 0.0195312 62.5075 2.07988 62.5922 5.07949H59.9658C59.8086 3.34453 58.3744 2.29727 56.2785 2.29727C54.1826 2.29727 52.7485 3.35685 52.7485 4.89903C52.7485 6.12814 53.6645 6.85138 55.9053 7.40504L57.8207 7.87535C61.3877 8.71891 62.8697 10.1518 62.8697 12.6947C62.8697 15.9472 60.2789 17.9843 56.1582 17.9843C52.3027 17.9843 49.6996 15.9951 49.5315 12.8505L52.1948 12.8507ZM68.4848 2.0198V5.01941H70.8952V7.07976H68.4848V14.0675C68.4848 15.153 68.9674 15.6589 70.027 15.6589C70.3131 15.6539 70.5988 15.6338 70.8829 15.5987V17.6467C70.4065 17.7357 69.9223 17.776 69.4377 17.767C66.8715 17.767 65.8707 16.8031 65.8707 14.3449V7.07976H64.0278V5.01941H65.8707V2.0198H68.4848ZM72.2911 11.3577C72.2911 7.36961 74.6399 4.86356 78.3026 4.86356C81.9776 4.86356 84.3155 7.36956 84.3155 11.3577C84.3155 15.3567 81.99 17.8518 78.3026 17.8518C74.6166 17.8518 72.2911 15.3567 72.2911 11.3577ZM81.6645 11.3577C81.6645 8.62196 80.4108 7.00731 78.3026 7.00731C76.1944 7.00731 74.9421 8.63426 74.9421 11.3577C74.9421 14.1044 76.1944 15.7067 78.3026 15.7067C80.4108 15.7067 81.6645 14.1044 81.6645 11.3577ZM86.4606 5.01941H88.942V7.17681H89.0022C89.1701 6.50301 89.5649 5.90754 90.1201 5.4905C90.6753 5.07346 91.3572 4.86027 92.0511 4.88677C92.3509 4.88572 92.6499 4.91829 92.9425 4.98385V7.41744C92.564 7.30177 92.1691 7.24867 91.7735 7.26022C91.3955 7.24488 91.0187 7.31153 90.6689 7.45557C90.3191 7.59961 90.0047 7.81764 89.7471 8.09468C89.4895 8.37173 89.295 8.70123 89.1768 9.06057C89.0586 9.41991 89.0195 9.80057 89.0623 10.1764V17.6946H86.4606L86.4606 5.01941ZM104.938 13.9717C104.588 16.2727 102.347 17.8518 99.4803 17.8518C95.793 17.8518 93.5043 15.3813 93.5043 11.4178C93.5043 7.44206 95.8053 4.86355 99.3709 4.86355C102.878 4.86355 105.083 7.27252 105.083 11.1157V12.0071H96.1307V12.1643C96.0894 12.6308 96.1478 13.1007 96.302 13.5429C96.4563 13.9851 96.7029 14.3894 97.0254 14.729C97.3479 15.0685 97.7389 15.3356 98.1726 15.5124C98.6062 15.6892 99.0725 15.7718 99.5405 15.7545C100.155 15.8122 100.772 15.6698 101.3 15.3485C101.827 15.0273 102.237 14.5445 102.468 13.9717L104.938 13.9717ZM96.143 10.1887H102.48C102.503 9.7693 102.44 9.34957 102.293 8.95588C102.147 8.56218 101.92 8.20303 101.628 7.90096C101.336 7.59889 100.985 7.36042 100.597 7.20051C100.208 7.04061 99.7909 6.96273 99.3709 6.97175C98.9473 6.96922 98.5273 7.05062 98.1352 7.21126C97.7432 7.3719 97.3868 7.60859 97.0867 7.90768C96.7866 8.20677 96.5487 8.56233 96.3867 8.95384C96.2248 9.34535 96.1419 9.76505 96.143 10.1887Z" fill="white"/>
<path d="M11.0233 12.9956H4.39653L2.80513 17.6946H-0.00170898L6.27505 0.309415H9.19125L15.468 17.6946H12.6133L11.0233 12.9956ZM5.08286 10.8272H10.3357L7.7462 3.20105H7.67374L5.08286 10.8272ZM29.0237 11.3577C29.0237 15.2966 26.9155 17.8272 23.734 17.8272C22.9281 17.8694 22.1266 17.6837 21.4213 17.2915C20.716 16.8993 20.1354 16.3165 19.746 15.6096H19.6857V21.8878H17.084V5.01941H19.6024V7.12761H19.6502C20.0576 6.42416 20.648 5.84429 21.3587 5.44971C22.0694 5.05512 22.8737 4.86058 23.6862 4.88679C26.9031 4.8868 29.0237 7.42976 29.0237 11.3577ZM26.3495 11.3577C26.3495 8.7915 25.0233 7.10437 22.9998 7.10437C21.012 7.10437 19.6748 8.82703 19.6748 11.3577C19.6748 13.9116 21.012 15.622 22.9998 15.622C25.0233 15.622 26.3495 13.9472 26.3495 11.3577ZM42.9745 11.3577C42.9745 15.2966 40.8663 17.8272 37.6848 17.8272C36.8789 17.8694 36.0774 17.6837 35.3721 17.2915C34.6668 16.8993 34.0862 16.3165 33.6967 15.6096H33.6365V21.8878H31.0348V5.01941H33.5531V7.12761H33.601C34.0083 6.42416 34.5987 5.8443 35.3094 5.44972C36.0201 5.05513 36.8245 4.86059 37.6369 4.8868C40.854 4.8868 42.9745 7.42976 42.9745 11.3577ZM40.3002 11.3577C40.3002 8.7915 38.9741 7.10437 36.9506 7.10437C34.9627 7.10437 33.6256 8.82703 33.6256 11.3577C33.6256 13.9116 34.9627 15.622 36.9506 15.622C38.9741 15.622 40.3002 13.9472 40.3002 11.3577ZM52.1948 12.8507C52.3876 14.5747 54.0624 15.7067 56.351 15.7067C58.544 15.7067 60.1217 14.5746 60.1217 13.0201C60.1217 11.6707 59.1702 10.8627 56.917 10.309L54.6639 9.76622C51.4715 8.99513 49.9895 7.50215 49.9895 5.07949C49.9895 2.07988 52.6036 0.0195312 56.3155 0.0195312C59.9891 0.0195312 62.5075 2.07988 62.5922 5.07949H59.9658C59.8086 3.34453 58.3744 2.29727 56.2785 2.29727C54.1826 2.29727 52.7485 3.35685 52.7485 4.89903C52.7485 6.12814 53.6645 6.85138 55.9053 7.40504L57.8207 7.87535C61.3877 8.71891 62.8697 10.1518 62.8697 12.6947C62.8697 15.9472 60.2789 17.9843 56.1582 17.9843C52.3027 17.9843 49.6996 15.9951 49.5315 12.8505L52.1948 12.8507ZM68.4848 2.0198V5.01941H70.8952V7.07976H68.4848V14.0675C68.4848 15.153 68.9674 15.6589 70.027 15.6589C70.3131 15.6539 70.5988 15.6338 70.8829 15.5987V17.6467C70.4065 17.7357 69.9223 17.776 69.4377 17.767C66.8715 17.767 65.8707 16.8031 65.8707 14.3449V7.07976H64.0278V5.01941H65.8707V2.0198H68.4848ZM72.2911 11.3577C72.2911 7.36961 74.6399 4.86356 78.3026 4.86356C81.9776 4.86356 84.3155 7.36956 84.3155 11.3577C84.3155 15.3567 81.99 17.8518 78.3026 17.8518C74.6166 17.8518 72.2911 15.3567 72.2911 11.3577ZM81.6645 11.3577C81.6645 8.62196 80.4108 7.00731 78.3026 7.00731C76.1944 7.00731 74.9421 8.63426 74.9421 11.3577C74.9421 14.1044 76.1944 15.7067 78.3026 15.7067C80.4108 15.7067 81.6645 14.1044 81.6645 11.3577ZM86.4606 5.01941H88.942V7.17681H89.0022C89.1701 6.50301 89.5649 5.90754 90.1201 5.4905C90.6753 5.07346 91.3572 4.86027 92.0511 4.88677C92.3509 4.88572 92.6499 4.91829 92.9425 4.98385V7.41744C92.564 7.30177 92.1691 7.24867 91.7735 7.26022C91.3955 7.24488 91.0187 7.31153 90.6689 7.45557C90.3191 7.59961 90.0047 7.81764 89.7471 8.09468C89.4895 8.37173 89.295 8.70123 89.1768 9.06057C89.0586 9.41991 89.0195 9.80057 89.0623 10.1764V17.6946H86.4606L86.4606 5.01941ZM104.938 13.9717C104.588 16.2727 102.347 17.8518 99.4803 17.8518C95.793 17.8518 93.5043 15.3813 93.5043 11.4178C93.5043 7.44206 95.8053 4.86355 99.3709 4.86355C102.878 4.86355 105.083 7.27252 105.083 11.1157V12.0071H96.1307V12.1643C96.0894 12.6308 96.1478 13.1007 96.302 13.5429C96.4563 13.9851 96.7029 14.3894 97.0254 14.729C97.3479 15.0685 97.7389 15.3356 98.1726 15.5124C98.6062 15.6892 99.0725 15.7718 99.5405 15.7545C100.155 15.8122 100.772 15.6698 101.3 15.3485C101.827 15.0273 102.237 14.5445 102.468 13.9717L104.938 13.9717ZM96.143 10.1887H102.48C102.503 9.7693 102.44 9.34957 102.293 8.95588C102.147 8.56218 101.92 8.20303 101.628 7.90096C101.336 7.59889 100.985 7.36042 100.597 7.20051C100.208 7.04061 99.7909 6.96273 99.3709 6.97175C98.9473 6.96922 98.5273 7.05062 98.1352 7.21126C97.7432 7.3719 97.3868 7.60859 97.0867 7.90768C96.7866 8.20677 96.5487 8.56233 96.3867 8.95384C96.2248 9.34535 96.1419 9.76505 96.143 10.1887Z" fill="white"/>
<path d="M11.0233 12.9956H4.39653L2.80513 17.6946H-0.00170898L6.27505 0.309415H9.19125L15.468 17.6946H12.6133L11.0233 12.9956ZM5.08286 10.8272H10.3357L7.7462 3.20105H7.67374L5.08286 10.8272ZM29.0237 11.3577C29.0237 15.2966 26.9155 17.8272 23.734 17.8272C22.9281 17.8694 22.1266 17.6837 21.4213 17.2915C20.716 16.8993 20.1354 16.3165 19.746 15.6096H19.6857V21.8878H17.084V5.01941H19.6024V7.12761H19.6502C20.0576 6.42416 20.648 5.84429 21.3587 5.44971C22.0694 5.05512 22.8737 4.86058 23.6862 4.88679C26.9031 4.8868 29.0237 7.42976 29.0237 11.3577ZM26.3495 11.3577C26.3495 8.7915 25.0233 7.10437 22.9998 7.10437C21.012 7.10437 19.6748 8.82703 19.6748 11.3577C19.6748 13.9116 21.012 15.622 22.9998 15.622C25.0233 15.622 26.3495 13.9472 26.3495 11.3577ZM42.9745 11.3577C42.9745 15.2966 40.8663 17.8272 37.6848 17.8272C36.8789 17.8694 36.0774 17.6837 35.3721 17.2915C34.6668 16.8993 34.0862 16.3165 33.6967 15.6096H33.6365V21.8878H31.0348V5.01941H33.5531V7.12761H33.601C34.0083 6.42416 34.5987 5.8443 35.3094 5.44972C36.0201 5.05513 36.8245 4.86059 37.6369 4.8868C40.854 4.8868 42.9745 7.42976 42.9745 11.3577ZM40.3002 11.3577C40.3002 8.7915 38.9741 7.10437 36.9506 7.10437C34.9627 7.10437 33.6256 8.82703 33.6256 11.3577C33.6256 13.9116 34.9627 15.622 36.9506 15.622C38.9741 15.622 40.3002 13.9472 40.3002 11.3577ZM52.1948 12.8507C52.3876 14.5747 54.0624 15.7067 56.351 15.7067C58.544 15.7067 60.1217 14.5746 60.1217 13.0201C60.1217 11.6707 59.1702 10.8627 56.917 10.309L54.6639 9.76622C51.4715 8.99513 49.9895 7.50215 49.9895 5.07949C49.9895 2.07988 52.6036 0.0195312 56.3155 0.0195312C59.9891 0.0195312 62.5075 2.07988 62.5922 5.07949H59.9658C59.8086 3.34453 58.3744 2.29727 56.2785 2.29727C54.1826 2.29727 52.7485 3.35685 52.7485 4.89903C52.7485 6.12814 53.6645 6.85138 55.9053 7.40504L57.8207 7.87535C61.3877 8.71891 62.8697 10.1518 62.8697 12.6947C62.8697 15.9472 60.2789 17.9843 56.1582 17.9843C52.3027 17.9843 49.6996 15.9951 49.5315 12.8505L52.1948 12.8507ZM68.4848 2.0198V5.01941H70.8952V7.07976H68.4848V14.0675C68.4848 15.153 68.9674 15.6589 70.027 15.6589C70.3131 15.6539 70.5988 15.6338 70.8829 15.5987V17.6467C70.4065 17.7357 69.9223 17.776 69.4377 17.767C66.8715 17.767 65.8707 16.8031 65.8707 14.3449V7.07976H64.0278V5.01941H65.8707V2.0198H68.4848ZM72.2911 11.3577C72.2911 7.36961 74.6399 4.86356 78.3026 4.86356C81.9776 4.86356 84.3155 7.36956 84.3155 11.3577C84.3155 15.3567 81.99 17.8518 78.3026 17.8518C74.6166 17.8518 72.2911 15.3567 72.2911 11.3577ZM81.6645 11.3577C81.6645 8.62196 80.4108 7.00731 78.3026 7.00731C76.1944 7.00731 74.9421 8.63426 74.9421 11.3577C74.9421 14.1044 76.1944 15.7067 78.3026 15.7067C80.4108 15.7067 81.6645 14.1044 81.6645 11.3577ZM86.4606 5.01941H88.942V7.17681H89.0022C89.1701 6.50301 89.5649 5.90754 90.1201 5.4905C90.6753 5.07346 91.3572 4.86027 92.0511 4.88677C92.3509 4.88572 92.6499 4.91829 92.9425 4.98385V7.41744C92.564 7.30177 92.1691 7.24867 91.7735 7.26022C91.3955 7.24488 91.0187 7.31153 90.6689 7.45557C90.3191 7.59961 90.0047 7.81764 89.7471 8.09468C89.4895 8.37173 89.295 8.70123 89.1768 9.06057C89.0586 9.41991 89.0195 9.80057 89.0623 10.1764V17.6946H86.4606L86.4606 5.01941ZM104.938 13.9717C104.588 16.2727 102.347 17.8518 99.4803 17.8518C95.793 17.8518 93.5043 15.3813 93.5043 11.4178C93.5043 7.44206 95.8053 4.86355 99.3709 4.86355C102.878 4.86355 105.083 7.27252 105.083 11.1157V12.0071H96.1307V12.1643C96.0894 12.6308 96.1478 13.1007 96.302 13.5429C96.4563 13.9851 96.7029 14.3894 97.0254 14.729C97.3479 15.0685 97.7389 15.3356 98.1726 15.5124C98.6062 15.6892 99.0725 15.7718 99.5405 15.7545C100.155 15.8122 100.772 15.6698 101.3 15.3485C101.827 15.0273 102.237 14.5445 102.468 13.9717L104.938 13.9717ZM96.143 10.1887H102.48C102.503 9.7693 102.44 9.34957 102.293 8.95588C102.147 8.56218 101.92 8.20303 101.628 7.90096C101.336 7.59889 100.985 7.36042 100.597 7.20051C100.208 7.04061 99.7909 6.96273 99.3709 6.97175C98.9473 6.96922 98.5273 7.05062 98.1352 7.21126C97.7432 7.3719 97.3868 7.60859 97.0867 7.90768C96.7866 8.20677 96.5487 8.56233 96.3867 8.95384C96.2248 9.34535 96.1419 9.76505 96.143 10.1887Z" fill="white"/>
<path d="M11.0233 12.9956H4.39653L2.80513 17.6946H-0.00170898L6.27505 0.309415H9.19125L15.468 17.6946H12.6133L11.0233 12.9956ZM5.08286 10.8272H10.3357L7.7462 3.20105H7.67374L5.08286 10.8272ZM29.0237 11.3577C29.0237 15.2966 26.9155 17.8272 23.734 17.8272C22.9281 17.8694 22.1266 17.6837 21.4213 17.2915C20.716 16.8993 20.1354 16.3165 19.746 15.6096H19.6857V21.8878H17.084V5.01941H19.6024V7.12761H19.6502C20.0576 6.42416 20.648 5.84429 21.3587 5.44971C22.0694 5.05512 22.8737 4.86058 23.6862 4.88679C26.9031 4.8868 29.0237 7.42976 29.0237 11.3577ZM26.3495 11.3577C26.3495 8.7915 25.0233 7.10437 22.9998 7.10437C21.012 7.10437 19.6748 8.82703 19.6748 11.3577C19.6748 13.9116 21.012 15.622 22.9998 15.622C25.0233 15.622 26.3495 13.9472 26.3495 11.3577ZM42.9745 11.3577C42.9745 15.2966 40.8663 17.8272 37.6848 17.8272C36.8789 17.8694 36.0774 17.6837 35.3721 17.2915C34.6668 16.8993 34.0862 16.3165 33.6967 15.6096H33.6365V21.8878H31.0348V5.01941H33.5531V7.12761H33.601C34.0083 6.42416 34.5987 5.8443 35.3094 5.44972C36.0201 5.05513 36.8245 4.86059 37.6369 4.8868C40.854 4.8868 42.9745 7.42976 42.9745 11.3577ZM40.3002 11.3577C40.3002 8.7915 38.9741 7.10437 36.9506 7.10437C34.9627 7.10437 33.6256 8.82703 33.6256 11.3577C33.6256 13.9116 34.9627 15.622 36.9506 15.622C38.9741 15.622 40.3002 13.9472 40.3002 11.3577ZM52.1948 12.8507C52.3876 14.5747 54.0624 15.7067 56.351 15.7067C58.544 15.7067 60.1217 14.5746 60.1217 13.0201C60.1217 11.6707 59.1702 10.8627 56.917 10.309L54.6639 9.76622C51.4715 8.99513 49.9895 7.50215 49.9895 5.07949C49.9895 2.07988 52.6036 0.0195312 56.3155 0.0195312C59.9891 0.0195312 62.5075 2.07988 62.5922 5.07949H59.9658C59.8086 3.34453 58.3744 2.29727 56.2785 2.29727C54.1826 2.29727 52.7485 3.35685 52.7485 4.89903C52.7485 6.12814 53.6645 6.85138 55.9053 7.40504L57.8207 7.87535C61.3877 8.71891 62.8697 10.1518 62.8697 12.6947C62.8697 15.9472 60.2789 17.9843 56.1582 17.9843C52.3027 17.9843 49.6996 15.9951 49.5315 12.8505L52.1948 12.8507ZM68.4848 2.0198V5.01941H70.8952V7.07976H68.4848V14.0675C68.4848 15.153 68.9674 15.6589 70.027 15.6589C70.3131 15.6539 70.5988 15.6338 70.8829 15.5987V17.6467C70.4065 17.7357 69.9223 17.776 69.4377 17.767C66.8715 17.767 65.8707 16.8031 65.8707 14.3449V7.07976H64.0278V5.01941H65.8707V2.0198H68.4848ZM72.2911 11.3577C72.2911 7.36961 74.6399 4.86356 78.3026 4.86356C81.9776 4.86356 84.3155 7.36956 84.3155 11.3577C84.3155 15.3567 81.99 17.8518 78.3026 17.8518C74.6166 17.8518 72.2911 15.3567 72.2911 11.3577ZM81.6645 11.3577C81.6645 8.62196 80.4108 7.00731 78.3026 7.00731C76.1944 7.00731 74.9421 8.63426 74.9421 11.3577C74.9421 14.1044 76.1944 15.7067 78.3026 15.7067C80.4108 15.7067 81.6645 14.1044 81.6645 11.3577ZM86.4606 5.01941H88.942V7.17681H89.0022C89.1701 6.50301 89.5649 5.90754 90.1201 5.4905C90.6753 5.07346 91.3572 4.86027 92.0511 4.88677C92.3509 4.88572 92.6499 4.91829 92.9425 4.98385V7.41744C92.564 7.30177 92.1691 7.24867 91.7735 7.26022C91.3955 7.24488 91.0187 7.31153 90.6689 7.45557C90.3191 7.59961 90.0047 7.81764 89.7471 8.09468C89.4895 8.37173 89.295 8.70123 89.1768 9.06057C89.0586 9.41991 89.0195 9.80057 89.0623 10.1764V17.6946H86.4606L86.4606 5.01941ZM104.938 13.9717C104.588 16.2727 102.347 17.8518 99.4803 17.8518C95.793 17.8518 93.5043 15.3813 93.5043 11.4178C93.5043 7.44206 95.8053 4.86355 99.3709 4.86355C102.878 4.86355 105.083 7.27252 105.083 11.1157V12.0071H96.1307V12.1643C96.0894 12.6308 96.1478 13.1007 96.302 13.5429C96.4563 13.9851 96.7029 14.3894 97.0254 14.729C97.3479 15.0685 97.7389 15.3356 98.1726 15.5124C98.6062 15.6892 99.0725 15.7718 99.5405 15.7545C100.155 15.8122 100.772 15.6698 101.3 15.3485C101.827 15.0273 102.237 14.5445 102.468 13.9717L104.938 13.9717ZM96.143 10.1887H102.48C102.503 9.7693 102.44 9.34957 102.293 8.95588C102.147 8.56218 101.92 8.20303 101.628 7.90096C101.336 7.59889 100.985 7.36042 100.597 7.20051C100.208 7.04061 99.7909 6.96273 99.3709 6.97175C98.9473 6.96922 98.5273 7.05062 98.1352 7.21126C97.7432 7.3719 97.3868 7.60859 97.0867 7.90768C96.7866 8.20677 96.5487 8.56233 96.3867 8.95384C96.2248 9.34535 96.1419 9.76505 96.143 10.1887Z" fill="white"/>
<path d="M11.0233 12.9956H4.39653L2.80513 17.6946H-0.00170898L6.27505 0.309415H9.19125L15.468 17.6946H12.6133L11.0233 12.9956ZM5.08286 10.8272H10.3357L7.7462 3.20105H7.67374L5.08286 10.8272ZM29.0237 11.3577C29.0237 15.2966 26.9155 17.8272 23.734 17.8272C22.9281 17.8694 22.1266 17.6837 21.4213 17.2915C20.716 16.8993 20.1354 16.3165 19.746 15.6096H19.6857V21.8878H17.084V5.01941H19.6024V7.12761H19.6502C20.0576 6.42416 20.648 5.84429 21.3587 5.44971C22.0694 5.05512 22.8737 4.86058 23.6862 4.88679C26.9031 4.8868 29.0237 7.42976 29.0237 11.3577ZM26.3495 11.3577C26.3495 8.7915 25.0233 7.10437 22.9998 7.10437C21.012 7.10437 19.6748 8.82703 19.6748 11.3577C19.6748 13.9116 21.012 15.622 22.9998 15.622C25.0233 15.622 26.3495 13.9472 26.3495 11.3577ZM42.9745 11.3577C42.9745 15.2966 40.8663 17.8272 37.6848 17.8272C36.8789 17.8694 36.0774 17.6837 35.3721 17.2915C34.6668 16.8993 34.0862 16.3165 33.6967 15.6096H33.6365V21.8878H31.0348V5.01941H33.5531V7.12761H33.601C34.0083 6.42416 34.5987 5.8443 35.3094 5.44972C36.0201 5.05513 36.8245 4.86059 37.6369 4.8868C40.854 4.8868 42.9745 7.42976 42.9745 11.3577ZM40.3002 11.3577C40.3002 8.7915 38.9741 7.10437 36.9506 7.10437C34.9627 7.10437 33.6256 8.82703 33.6256 11.3577C33.6256 13.9116 34.9627 15.622 36.9506 15.622C38.9741 15.622 40.3002 13.9472 40.3002 11.3577ZM52.1948 12.8507C52.3876 14.5747 54.0624 15.7067 56.351 15.7067C58.544 15.7067 60.1217 14.5746 60.1217 13.0201C60.1217 11.6707 59.1702 10.8627 56.917 10.309L54.6639 9.76622C51.4715 8.99513 49.9895 7.50215 49.9895 5.07949C49.9895 2.07988 52.6036 0.0195312 56.3155 0.0195312C59.9891 0.0195312 62.5075 2.07988 62.5922 5.07949H59.9658C59.8086 3.34453 58.3744 2.29727 56.2785 2.29727C54.1826 2.29727 52.7485 3.35685 52.7485 4.89903C52.7485 6.12814 53.6645 6.85138 55.9053 7.40504L57.8207 7.87535C61.3877 8.71891 62.8697 10.1518 62.8697 12.6947C62.8697 15.9472 60.2789 17.9843 56.1582 17.9843C52.3027 17.9843 49.6996 15.9951 49.5315 12.8505L52.1948 12.8507ZM68.4848 2.0198V5.01941H70.8952V7.07976H68.4848V14.0675C68.4848 15.153 68.9674 15.6589 70.027 15.6589C70.3131 15.6539 70.5988 15.6338 70.8829 15.5987V17.6467C70.4065 17.7357 69.9223 17.776 69.4377 17.767C66.8715 17.767 65.8707 16.8031 65.8707 14.3449V7.07976H64.0278V5.01941H65.8707V2.0198H68.4848ZM72.2911 11.3577C72.2911 7.36961 74.6399 4.86356 78.3026 4.86356C81.9776 4.86356 84.3155 7.36956 84.3155 11.3577C84.3155 15.3567 81.99 17.8518 78.3026 17.8518C74.6166 17.8518 72.2911 15.3567 72.2911 11.3577ZM81.6645 11.3577C81.6645 8.62196 80.4108 7.00731 78.3026 7.00731C76.1944 7.00731 74.9421 8.63426 74.9421 11.3577C74.9421 14.1044 76.1944 15.7067 78.3026 15.7067C80.4108 15.7067 81.6645 14.1044 81.6645 11.3577ZM86.4606 5.01941H88.942V7.17681H89.0022C89.1701 6.50301 89.5649 5.90754 90.1201 5.4905C90.6753 5.07346 91.3572 4.86027 92.0511 4.88677C92.3509 4.88572 92.6499 4.91829 92.9425 4.98385V7.41744C92.564 7.30177 92.1691 7.24867 91.7735 7.26022C91.3955 7.24488 91.0187 7.31153 90.6689 7.45557C90.3191 7.59961 90.0047 7.81764 89.7471 8.09468C89.4895 8.37173 89.295 8.70123 89.1768 9.06057C89.0586 9.41991 89.0195 9.80057 89.0623 10.1764V17.6946H86.4606L86.4606 5.01941ZM104.938 13.9717C104.588 16.2727 102.347 17.8518 99.4803 17.8518C95.793 17.8518 93.5043 15.3813 93.5043 11.4178C93.5043 7.44206 95.8053 4.86355 99.3709 4.86355C102.878 4.86355 105.083 7.27252 105.083 11.1157V12.0071H96.1307V12.1643C96.0894 12.6308 96.1478 13.1007 96.302 13.5429C96.4563 13.9851 96.7029 14.3894 97.0254 14.729C97.3479 15.0685 97.7389 15.3356 98.1726 15.5124C98.6062 15.6892 99.0725 15.7718 99.5405 15.7545C100.155 15.8122 100.772 15.6698 101.3 15.3485C101.827 15.0273 102.237 14.5445 102.468 13.9717L104.938 13.9717ZM96.143 10.1887H102.48C102.503 9.7693 102.44 9.34957 102.293 8.95588C102.147 8.56218 101.92 8.20303 101.628 7.90096C101.336 7.59889 100.985 7.36042 100.597 7.20051C100.208 7.04061 99.7909 6.96273 99.3709 6.97175C98.9473 6.96922 98.5273 7.05062 98.1352 7.21126C97.7432 7.3719 97.3868 7.60859 97.0867 7.90768C96.7866 8.20677 96.5487 8.56233 96.3867 8.95384C96.2248 9.34535 96.1419 9.76505 96.143 10.1887Z" fill="white"/>
<path d="M11.0233 12.9956H4.39653L2.80513 17.6946H-0.00170898L6.27505 0.309415H9.19125L15.468 17.6946H12.6133L11.0233 12.9956ZM5.08286 10.8272H10.3357L7.7462 3.20105H7.67374L5.08286 10.8272ZM29.0237 11.3577C29.0237 15.2966 26.9155 17.8272 23.734 17.8272C22.9281 17.8694 22.1266 17.6837 21.4213 17.2915C20.716 16.8993 20.1354 16.3165 19.746 15.6096H19.6857V21.8878H17.084V5.01941H19.6024V7.12761H19.6502C20.0576 6.42416 20.648 5.84429 21.3587 5.44971C22.0694 5.05512 22.8737 4.86058 23.6862 4.88679C26.9031 4.8868 29.0237 7.42976 29.0237 11.3577ZM26.3495 11.3577C26.3495 8.7915 25.0233 7.10437 22.9998 7.10437C21.012 7.10437 19.6748 8.82703 19.6748 11.3577C19.6748 13.9116 21.012 15.622 22.9998 15.622C25.0233 15.622 26.3495 13.9472 26.3495 11.3577ZM42.9745 11.3577C42.9745 15.2966 40.8663 17.8272 37.6848 17.8272C36.8789 17.8694 36.0774 17.6837 35.3721 17.2915C34.6668 16.8993 34.0862 16.3165 33.6967 15.6096H33.6365V21.8878H31.0348V5.01941H33.5531V7.12761H33.601C34.0083 6.42416 34.5987 5.8443 35.3094 5.44972C36.0201 5.05513 36.8245 4.86059 37.6369 4.8868C40.854 4.8868 42.9745 7.42976 42.9745 11.3577ZM40.3002 11.3577C40.3002 8.7915 38.9741 7.10437 36.9506 7.10437C34.9627 7.10437 33.6256 8.82703 33.6256 11.3577C33.6256 13.9116 34.9627 15.622 36.9506 15.622C38.9741 15.622 40.3002 13.9472 40.3002 11.3577ZM52.1948 12.8507C52.3876 14.5747 54.0624 15.7067 56.351 15.7067C58.544 15.7067 60.1217 14.5746 60.1217 13.0201C60.1217 11.6707 59.1702 10.8627 56.917 10.309L54.6639 9.76622C51.4715 8.99513 49.9895 7.50215 49.9895 5.07949C49.9895 2.07988 52.6036 0.0195312 56.3155 0.0195312C59.9891 0.0195312 62.5075 2.07988 62.5922 5.07949H59.9658C59.8086 3.34453 58.3744 2.29727 56.2785 2.29727C54.1826 2.29727 52.7485 3.35685 52.7485 4.89903C52.7485 6.12814 53.6645 6.85138 55.9053 7.40504L57.8207 7.87535C61.3877 8.71891 62.8697 10.1518 62.8697 12.6947C62.8697 15.9472 60.2789 17.9843 56.1582 17.9843C52.3027 17.9843 49.6996 15.9951 49.5315 12.8505L52.1948 12.8507ZM68.4848 2.0198V5.01941H70.8952V7.07976H68.4848V14.0675C68.4848 15.153 68.9674 15.6589 70.027 15.6589C70.3131 15.6539 70.5988 15.6338 70.8829 15.5987V17.6467C70.4065 17.7357 69.9223 17.776 69.4377 17.767C66.8715 17.767 65.8707 16.8031 65.8707 14.3449V7.07976H64.0278V5.01941H65.8707V2.0198H68.4848ZM72.2911 11.3577C72.2911 7.36961 74.6399 4.86356 78.3026 4.86356C81.9776 4.86356 84.3155 7.36956 84.3155 11.3577C84.3155 15.3567 81.99 17.8518 78.3026 17.8518C74.6166 17.8518 72.2911 15.3567 72.2911 11.3577ZM81.6645 11.3577C81.6645 8.62196 80.4108 7.00731 78.3026 7.00731C76.1944 7.00731 74.9421 8.63426 74.9421 11.3577C74.9421 14.1044 76.1944 15.7067 78.3026 15.7067C80.4108 15.7067 81.6645 14.1044 81.6645 11.3577ZM86.4606 5.01941H88.942V7.17681H89.0022C89.1701 6.50301 89.5649 5.90754 90.1201 5.4905C90.6753 5.07346 91.3572 4.86027 92.0511 4.88677C92.3509 4.88572 92.6499 4.91829 92.9425 4.98385V7.41744C92.564 7.30177 92.1691 7.24867 91.7735 7.26022C91.3955 7.24488 91.0187 7.31153 90.6689 7.45557C90.3191 7.59961 90.0047 7.81764 89.7471 8.09468C89.4895 8.37173 89.295 8.70123 89.1768 9.06057C89.0586 9.41991 89.0195 9.80057 89.0623 10.1764V17.6946H86.4606L86.4606 5.01941ZM104.938 13.9717C104.588 16.2727 102.347 17.8518 99.4803 17.8518C95.793 17.8518 93.5043 15.3813 93.5043 11.4178C93.5043 7.44206 95.8053 4.86355 99.3709 4.86355C102.878 4.86355 105.083 7.27252 105.083 11.1157V12.0071H96.1307V12.1643C96.0894 12.6308 96.1478 13.1007 96.302 13.5429C96.4563 13.9851 96.7029 14.3894 97.0254 14.729C97.3479 15.0685 97.7389 15.3356 98.1726 15.5124C98.6062 15.6892 99.0725 15.7718 99.5405 15.7545C100.155 15.8122 100.772 15.6698 101.3 15.3485C101.827 15.0273 102.237 14.5445 102.468 13.9717L104.938 13.9717ZM96.143 10.1887H102.48C102.503 9.7693 102.44 9.34957 102.293 8.95588C102.147 8.56218 101.92 8.20303 101.628 7.90096C101.336 7.59889 100.985 7.36042 100.597 7.20051C100.208 7.04061 99.7909 6.96273 99.3709 6.97175C98.9473 6.96922 98.5273 7.05062 98.1352 7.21126C97.7432 7.3719 97.3868 7.60859 97.0867 7.90768C96.7866 8.20677 96.5487 8.56233 96.3867 8.95384C96.2248 9.34535 96.1419 9.76505 96.143 10.1887Z" fill="white"/>
<path d="M11.0233 12.9956H4.39653L2.80513 17.6946H-0.00170898L6.27505 0.309415H9.19125L15.468 17.6946H12.6133L11.0233 12.9956ZM5.08286 10.8272H10.3357L7.7462 3.20105H7.67374L5.08286 10.8272ZM29.0237 11.3577C29.0237 15.2966 26.9155 17.8272 23.734 17.8272C22.9281 17.8694 22.1266 17.6837 21.4213 17.2915C20.716 16.8993 20.1354 16.3165 19.746 15.6096H19.6857V21.8878H17.084V5.01941H19.6024V7.12761H19.6502C20.0576 6.42416 20.648 5.84429 21.3587 5.44971C22.0694 5.05512 22.8737 4.86058 23.6862 4.88679C26.9031 4.8868 29.0237 7.42976 29.0237 11.3577ZM26.3495 11.3577C26.3495 8.7915 25.0233 7.10437 22.9998 7.10437C21.012 7.10437 19.6748 8.82703 19.6748 11.3577C19.6748 13.9116 21.012 15.622 22.9998 15.622C25.0233 15.622 26.3495 13.9472 26.3495 11.3577ZM42.9745 11.3577C42.9745 15.2966 40.8663 17.8272 37.6848 17.8272C36.8789 17.8694 36.0774 17.6837 35.3721 17.2915C34.6668 16.8993 34.0862 16.3165 33.6967 15.6096H33.6365V21.8878H31.0348V5.01941H33.5531V7.12761H33.601C34.0083 6.42416 34.5987 5.8443 35.3094 5.44972C36.0201 5.05513 36.8245 4.86059 37.6369 4.8868C40.854 4.8868 42.9745 7.42976 42.9745 11.3577ZM40.3002 11.3577C40.3002 8.7915 38.9741 7.10437 36.9506 7.10437C34.9627 7.10437 33.6256 8.82703 33.6256 11.3577C33.6256 13.9116 34.9627 15.622 36.9506 15.622C38.9741 15.622 40.3002 13.9472 40.3002 11.3577ZM52.1948 12.8507C52.3876 14.5747 54.0624 15.7067 56.351 15.7067C58.544 15.7067 60.1217 14.5746 60.1217 13.0201C60.1217 11.6707 59.1702 10.8627 56.917 10.309L54.6639 9.76622C51.4715 8.99513 49.9895 7.50215 49.9895 5.07949C49.9895 2.07988 52.6036 0.0195312 56.3155 0.0195312C59.9891 0.0195312 62.5075 2.07988 62.5922 5.07949H59.9658C59.8086 3.34453 58.3744 2.29727 56.2785 2.29727C54.1826 2.29727 52.7485 3.35685 52.7485 4.89903C52.7485 6.12814 53.6645 6.85138 55.9053 7.40504L57.8207 7.87535C61.3877 8.71891 62.8697 10.1518 62.8697 12.6947C62.8697 15.9472 60.2789 17.9843 56.1582 17.9843C52.3027 17.9843 49.6996 15.9951 49.5315 12.8505L52.1948 12.8507ZM68.4848 2.0198V5.01941H70.8952V7.07976H68.4848V14.0675C68.4848 15.153 68.9674 15.6589 70.027 15.6589C70.3131 15.6539 70.5988 15.6338 70.8829 15.5987V17.6467C70.4065 17.7357 69.9223 17.776 69.4377 17.767C66.8715 17.767 65.8707 16.8031 65.8707 14.3449V7.07976H64.0278V5.01941H65.8707V2.0198H68.4848ZM72.2911 11.3577C72.2911 7.36961 74.6399 4.86356 78.3026 4.86356C81.9776 4.86356 84.3155 7.36956 84.3155 11.3577C84.3155 15.3567 81.99 17.8518 78.3026 17.8518C74.6166 17.8518 72.2911 15.3567 72.2911 11.3577ZM81.6645 11.3577C81.6645 8.62196 80.4108 7.00731 78.3026 7.00731C76.1944 7.00731 74.9421 8.63426 74.9421 11.3577C74.9421 14.1044 76.1944 15.7067 78.3026 15.7067C80.4108 15.7067 81.6645 14.1044 81.6645 11.3577ZM86.4606 5.01941H88.942V7.17681H89.0022C89.1701 6.50301 89.5649 5.90754 90.1201 5.4905C90.6753 5.07346 91.3572 4.86027 92.0511 4.88677C92.3509 4.88572 92.6499 4.91829 92.9425 4.98385V7.41744C92.564 7.30177 92.1691 7.24867 91.7735 7.26022C91.3955 7.24488 91.0187 7.31153 90.6689 7.45557C90.3191 7.59961 90.0047 7.81764 89.7471 8.09468C89.4895 8.37173 89.295 8.70123 89.1768 9.06057C89.0586 9.41991 89.0195 9.80057 89.0623 10.1764V17.6946H86.4606L86.4606 5.01941ZM104.938 13.9717C104.588 16.2727 102.347 17.8518 99.4803 17.8518C95.793 17.8518 93.5043 15.3813 93.5043 11.4178C93.5043 7.44206 95.8053 4.86355 99.3709 4.86355C102.878 4.86355 105.083 7.27252 105.083 11.1157V12.0071H96.1307V12.1643C96.0894 12.6308 96.1478 13.1007 96.302 13.5429C96.4563 13.9851 96.7029 14.3894 97.0254 14.729C97.3479 15.0685 97.7389 15.3356 98.1726 15.5124C98.6062 15.6892 99.0725 15.7718 99.5405 15.7545C100.155 15.8122 100.772 15.6698 101.3 15.3485C101.827 15.0273 102.237 14.5445 102.468 13.9717L104.938 13.9717ZM96.143 10.1887H102.48C102.503 9.7693 102.44 9.34957 102.293 8.95588C102.147 8.56218 101.92 8.20303 101.628 7.90096C101.336 7.59889 100.985 7.36042 100.597 7.20051C100.208 7.04061 99.7909 6.96273 99.3709 6.97175C98.9473 6.96922 98.5273 7.05062 98.1352 7.21126C97.7432 7.3719 97.3868 7.60859 97.0867 7.90768C96.7866 8.20677 96.5487 8.56233 96.3867 8.95384C96.2248 9.34535 96.1419 9.76505 96.143 10.1887Z" fill="white"/>
</svg>
