<svg width="26" height="31" viewBox="0 0 26 31" fill="none" xmlns="http://www.w3.org/2000/svg">
<path d="M21.4765 16.4211C21.4916 15.2525 21.8019 14.1068 22.3788 13.0905C22.9556 12.0741 23.7801 11.2202 24.7757 10.6082C24.1432 9.70496 23.3089 8.96164 22.339 8.43727C21.369 7.9129 20.2901 7.62192 19.1881 7.58743C16.8371 7.34067 14.558 8.9942 13.36 8.9942C12.1388 8.9942 10.2943 7.61193 8.30809 7.6528C7.02335 7.69431 5.77126 8.0679 4.67383 8.73718C3.57641 9.40647 2.67106 10.3486 2.046 11.4718C-0.661596 16.1596 1.35803 23.0491 3.95168 26.8383C5.24934 28.6938 6.76594 30.7664 8.75037 30.6929C10.6923 30.6124 11.4175 29.4547 13.7615 29.4547C16.0838 29.4547 16.7642 30.6929 18.7889 30.6462C20.8727 30.6124 22.1855 28.7825 23.4376 26.9094C24.37 25.5873 25.0875 24.1261 25.5634 22.5799C24.3528 22.0679 23.3198 21.2108 22.593 20.1156C21.8662 19.0204 21.4779 17.7355 21.4765 16.4211ZM17.6522 5.09536C18.7884 3.73147 19.3481 1.97842 19.2125 0.208496C17.4768 0.390805 15.8734 1.22039 14.7219 2.53195C14.1589 3.17268 13.7277 3.91809 13.453 4.72557C13.1782 5.53305 13.0653 6.38676 13.1207 7.2379C13.9889 7.24683 14.8478 7.05866 15.6328 6.68753C16.4177 6.31641 17.1082 5.77202 17.6522 5.09536Z" fill="white"/>
<path d="M21.4765 16.4211C21.4916 15.2525 21.8019 14.1068 22.3788 13.0905C22.9556 12.0741 23.7801 11.2202 24.7757 10.6082C24.1432 9.70496 23.3089 8.96164 22.339 8.43727C21.369 7.9129 20.2901 7.62192 19.1881 7.58743C16.8371 7.34067 14.558 8.9942 13.36 8.9942C12.1388 8.9942 10.2943 7.61193 8.30809 7.6528C7.02335 7.69431 5.77126 8.0679 4.67383 8.73718C3.57641 9.40647 2.67106 10.3486 2.046 11.4718C-0.661596 16.1596 1.35803 23.0491 3.95168 26.8383C5.24934 28.6938 6.76594 30.7664 8.75037 30.6929C10.6923 30.6124 11.4175 29.4547 13.7615 29.4547C16.0838 29.4547 16.7642 30.6929 18.7889 30.6462C20.8727 30.6124 22.1855 28.7825 23.4376 26.9094C24.37 25.5873 25.0875 24.1261 25.5634 22.5799C24.3528 22.0679 23.3198 21.2108 22.593 20.1156C21.8662 19.0204 21.4779 17.7355 21.4765 16.4211ZM17.6522 5.09536C18.7884 3.73147 19.3481 1.97842 19.2125 0.208496C17.4768 0.390805 15.8734 1.22039 14.7219 2.53195C14.1589 3.17268 13.7277 3.91809 13.453 4.72557C13.1782 5.53305 13.0653 6.38676 13.1207 7.2379C13.9889 7.24683 14.8478 7.05866 15.6328 6.68753C16.4177 6.31641 17.1082 5.77202 17.6522 5.09536Z" fill="white"/>
</svg>
