<svg width="53" height="53" viewBox="0 0 53 53" fill="none" xmlns="http://www.w3.org/2000/svg">
<path d="M0 0H45C49.4183 0 53 3.58172 53 8V45C53 49.4183 49.4183 53 45 53H0V0Z" fill="#00A795"/>
<path d="M35.2806 27.0306L28.5306 33.7806C28.3899 33.9213 28.199 34.0003 28 34.0003C27.801 34.0003 27.6101 33.9213 27.4694 33.7806C27.3286 33.6398 27.2496 33.449 27.2496 33.2499C27.2496 33.0509 27.3286 32.86 27.4694 32.7193L32.9397 27.2499H18.25C18.0511 27.2499 17.8603 27.1709 17.7197 27.0303C17.579 26.8896 17.5 26.6988 17.5 26.4999C17.5 26.301 17.579 26.1103 17.7197 25.9696C17.8603 25.8289 18.0511 25.7499 18.25 25.7499H32.9397L27.4694 20.2806C27.3286 20.1398 27.2496 19.949 27.2496 19.7499C27.2496 19.5509 27.3286 19.36 27.4694 19.2193C27.6101 19.0786 27.801 18.9995 28 18.9995C28.199 18.9995 28.3899 19.0786 28.5306 19.2193L35.2806 25.9693C35.3504 26.039 35.4057 26.1217 35.4434 26.2127C35.4812 26.3038 35.5006 26.4014 35.5006 26.4999C35.5006 26.5985 35.4812 26.6961 35.4434 26.7871C35.4057 26.8782 35.3504 26.9609 35.2806 27.0306Z" fill="#F7FFFB"/>
</svg>
