<svg width="190" height="56" viewBox="0 0 190 56" fill="none" xmlns="http://www.w3.org/2000/svg">
<g clip-path="url(#clip0_1_239)">
<path d="M182.1 0H7.09998C3.23398 0 0.0999756 3.13401 0.0999756 7V49C0.0999756 52.866 3.23398 56 7.09998 56H182.1C185.966 56 189.1 52.866 189.1 49V7C189.1 3.13401 185.966 0 182.1 0Z" fill="black"/>
<path d="M66.488 14.3361C66.5361 15.3738 66.1566 16.3858 65.438 17.1361C64.6351 17.9702 63.5151 18.4233 62.358 18.3821C60.5833 18.3682 58.9898 17.2918 58.3144 15.6505C57.639 14.0093 58.0132 12.1231 59.264 10.8641C60.0768 10.0343 61.1968 9.57818 62.358 9.60406C62.9499 9.60209 63.5359 9.72119 64.08 9.95406C64.5866 10.1584 65.0376 10.4798 65.396 10.8921L64.654 11.6341C64.0875 10.9602 63.2371 10.592 62.358 10.6401C61.4744 10.6357 60.6272 10.9916 60.0117 11.6256C59.3962 12.2596 59.0656 13.117 59.096 14.0001C59.0773 15.3345 59.8632 16.5492 61.0881 17.079C62.3131 17.6088 63.7365 17.3496 64.696 16.4221C65.1268 15.9552 65.3753 15.349 65.396 14.7141H62.358V13.7061H66.432C66.4694 13.914 66.4881 14.1248 66.488 14.3361ZM72.9 10.8361H69.12V13.4961H72.564V14.5041H69.12V17.1641H72.9V18.2001H68V9.80006H72.9V10.8361ZM77.492 18.2001H76.414V10.8361H74.062V9.80006H79.9V10.8361H77.492V18.2001ZM84.016 18.2001V9.80006H85.094V18.2001H84.016ZM89.882 18.2001H88.804V10.8361H86.452V9.80006H92.22V10.8361H89.882V18.2001ZM103.154 17.1081C101.45 18.8024 98.6978 18.8024 96.994 17.1081C95.3424 15.3598 95.3424 12.6263 96.994 10.8781C97.8088 10.0573 98.9175 9.5957 100.074 9.5957C101.231 9.5957 102.339 10.0573 103.154 10.8781C104.813 12.6235 104.813 15.3626 103.154 17.1081ZM97.792 16.4081C99.0539 17.6646 101.094 17.6646 102.356 16.4081C103.595 15.0419 103.595 12.9582 102.356 11.5921C101.094 10.3355 99.0539 10.3355 97.792 11.5921C96.5528 12.9582 96.5528 15.0419 97.792 16.4081ZM105.912 18.2001V9.80006H107.228L111.316 16.3381V9.80006H112.394V18.2001H111.274L107.004 11.3541V18.2001H105.912Z" fill="white" stroke="white" stroke-width="0.2"/>
<path d="M95.496 30.45C92.2136 30.4654 89.5638 33.1362 89.574 36.4186C89.5843 39.701 92.2509 42.355 95.5333 42.3499C98.8157 42.3448 101.474 39.6824 101.474 36.4C101.497 34.8101 100.874 33.279 99.7468 32.1573C98.6198 31.0356 97.0858 30.4195 95.496 30.45ZM95.496 40.012C94.0165 40.1155 92.6242 39.304 91.9848 37.9658C91.3455 36.6276 91.5892 35.0346 92.5994 33.9487C93.6095 32.8627 95.1808 32.5047 96.5617 33.0457C97.9426 33.5867 98.8524 34.9169 98.856 36.4C98.9016 37.3277 98.5705 38.2345 97.9378 38.9146C97.3052 39.5947 96.4246 39.9905 95.496 40.012ZM82.462 30.45C79.1778 30.4577 76.5209 33.125 76.526 36.4093C76.5312 39.6936 79.1964 42.3525 82.4807 42.35C85.7649 42.3474 88.426 39.6843 88.426 36.4C88.4491 34.8101 87.8257 33.279 86.6988 32.1573C85.5718 31.0356 84.0378 30.4195 82.448 30.45H82.462ZM82.462 40.012C80.9818 40.1213 79.5853 39.3139 78.9415 37.9765C78.2977 36.6391 78.5376 35.044 79.5463 33.9552C80.5549 32.8663 82.1271 32.5053 83.5097 33.0452C84.8923 33.585 85.804 34.9157 85.808 36.4C85.8536 37.3277 85.5225 38.2345 84.8898 38.9146C84.2572 39.5947 83.3766 39.9905 82.448 40.012H82.462ZM66.936 32.284V34.804H72.984C72.8892 35.9909 72.3958 37.1109 71.584 37.982C70.3604 39.2283 68.6672 39.8995 66.922 39.83C63.2107 39.83 60.202 36.8214 60.202 33.11C60.202 29.3986 63.2107 26.39 66.922 26.39C68.6269 26.3622 70.2733 27.0117 71.5 28.196L73.278 26.418C71.6049 24.7238 69.317 23.7794 66.936 23.8C63.5466 23.6681 60.3566 25.4011 58.6226 28.3165C56.8887 31.2318 56.8887 34.8622 58.6226 37.7775C60.3566 40.6929 63.5466 42.4259 66.936 42.294C69.3605 42.4036 71.7139 41.4591 73.39 39.704C74.8568 38.0925 75.6399 35.9741 75.574 33.796C75.5785 33.2654 75.5316 32.7356 75.434 32.214L66.936 32.284ZM130.37 34.244C129.623 32.0449 127.595 30.5355 125.274 30.45C123.726 30.447 122.246 31.0848 121.185 32.2119C120.124 33.3391 119.577 34.8551 119.674 36.4C119.64 37.981 120.25 39.508 121.364 40.6302C122.478 41.7524 124.001 42.3732 125.582 42.35C127.571 42.3607 129.433 41.372 130.538 39.718L128.508 38.318C127.892 39.3455 126.78 39.973 125.582 39.97C124.341 40.0173 123.197 39.3011 122.698 38.164L130.664 34.874L130.37 34.244ZM122.25 36.232C122.193 35.3572 122.49 34.4962 123.075 33.843C123.659 33.1898 124.482 32.7995 125.358 32.76C126.281 32.6992 127.152 33.195 127.57 34.02L122.25 36.232ZM115.782 42H118.4V24.5H115.782V42ZM111.498 31.78H111.4C110.602 30.8877 109.461 30.3784 108.264 30.38C105.086 30.5341 102.589 33.1555 102.589 36.337C102.589 39.5185 105.086 42.1399 108.264 42.294C109.465 42.3142 110.613 41.8016 111.4 40.894H111.484V41.748C111.484 44.03 110.266 45.248 108.306 45.248C106.971 45.2167 105.787 44.3814 105.31 43.134L103.028 44.086C103.907 46.2235 105.995 47.6138 108.306 47.6001C111.372 47.6001 113.906 45.794 113.906 41.398V30.8H111.498V31.78ZM108.502 40.012C106.63 39.847 105.194 38.2792 105.194 36.4C105.194 34.5208 106.63 32.953 108.502 32.788C109.407 32.8344 110.254 33.2441 110.852 33.9241C111.451 34.6041 111.749 35.4969 111.68 36.4C111.757 37.3073 111.46 38.2066 110.857 38.8889C110.254 39.5712 109.398 39.977 108.488 40.012H108.502ZM142.634 24.5H136.376V42H138.994V35.364H142.648C144.682 35.5101 146.627 34.5079 147.688 32.767C148.75 31.026 148.75 28.838 147.688 27.097C146.627 25.3561 144.682 24.3539 142.648 24.5H142.634ZM142.634 32.9H138.98V26.936H142.69C144.349 26.936 145.693 28.2805 145.693 29.939C145.693 31.5975 144.349 32.942 142.69 32.942L142.634 32.9ZM158.776 30.38C156.828 30.2636 154.997 31.3139 154.114 33.054L156.438 34.02C156.906 33.1571 157.84 32.652 158.818 32.732C159.489 32.6536 160.164 32.8482 160.691 33.272C161.217 33.6958 161.551 34.3134 161.618 34.986V35.168C160.777 34.7228 159.839 34.492 158.888 34.496C156.382 34.496 153.848 35.896 153.848 38.43C153.898 39.5216 154.387 40.5466 155.205 41.2717C156.022 41.9969 157.098 42.3605 158.188 42.28C159.531 42.3764 160.819 41.7322 161.548 40.6H161.632V42H164.152V35.266C164.152 32.2 161.828 30.422 158.846 30.422L158.776 30.38ZM158.454 39.97C157.6 39.97 156.41 39.536 156.41 38.486C156.41 37.086 157.894 36.624 159.21 36.624C160.042 36.6035 160.864 36.8065 161.59 37.212C161.409 38.7792 160.101 39.9736 158.524 40.012L158.454 39.97ZM173.336 30.8L170.34 38.388H170.256L167.148 30.8H164.348L169.01 41.412L166.35 47.306H169.08L176.248 30.8H173.336ZM149.802 42H152.42V24.5H149.802V42Z" fill="white"/>
<path d="M14.7162 10.556C14.2598 11.1036 14.0295 11.8045 14.0722 12.516V43.484C14.0295 44.1955 14.2598 44.8965 14.7162 45.444L14.8142 45.542L32.1602 28.21V27.804L14.8142 10.458L14.7162 10.556Z" fill="url(#paint0_linear_1_239)"/>
<path d="M37.8998 33.9921L32.1598 28.2101V27.8041L37.8998 22.0081L38.0258 22.0781L44.8998 25.9841C46.8598 27.0901 46.8598 28.9101 44.8998 30.0301L38.0538 33.9221L37.8998 33.9921Z" fill="url(#paint1_linear_1_239)"/>
<path d="M38.0679 33.908L32.1599 28L14.7159 45.444C15.5401 46.1685 16.7633 46.2038 17.6279 45.528L38.0819 33.908" fill="url(#paint2_linear_1_239)"/>
<path d="M38.0683 22.0921L17.6143 10.4721C16.7497 9.7963 15.5265 9.83159 14.7023 10.5561L32.1603 28.0001L38.0683 22.0921Z" fill="url(#paint3_linear_1_239)"/>
</g>
<defs>
<linearGradient id="paint0_linear_1_239" x1="1118.36" y1="184.058" x2="-368.632" y2="1671.05" gradientUnits="userSpaceOnUse">
<stop stop-color="#00A0FF"/>
<stop offset="0.01" stop-color="#00A1FF"/>
<stop offset="0.26" stop-color="#00BEFF"/>
<stop offset="0.51" stop-color="#00D2FF"/>
<stop offset="0.76" stop-color="#00DFFF"/>
<stop offset="1" stop-color="#00E3FF"/>
</linearGradient>
<linearGradient id="paint1_linear_1_239" x1="1562.36" y1="621.208" x2="-1824.24" y2="621.208" gradientUnits="userSpaceOnUse">
<stop stop-color="#FFE000"/>
<stop offset="0.41" stop-color="#FFBD00"/>
<stop offset="0.78" stop-color="#FFA500"/>
<stop offset="1" stop-color="#FF9C00"/>
</linearGradient>
<linearGradient id="paint2_linear_1_239" x1="2029.32" y1="584.776" x2="-510.905" y2="3123.88" gradientUnits="userSpaceOnUse">
<stop stop-color="#FF3A44"/>
<stop offset="1" stop-color="#C31162"/>
</linearGradient>
<linearGradient id="paint3_linear_1_239" x1="-423.498" y1="-203.123" x2="710.323" y2="930.698" gradientUnits="userSpaceOnUse">
<stop stop-color="#32A071"/>
<stop offset="0.07" stop-color="#2DA771"/>
<stop offset="0.48" stop-color="#15CF74"/>
<stop offset="0.8" stop-color="#06E775"/>
<stop offset="1" stop-color="#00F076"/>
</linearGradient>
<clipPath id="clip0_1_239">
<rect width="189" height="56" fill="white" transform="translate(0.0999756)"/>
</clipPath>
</defs>
</svg>
