<svg width="33" height="32" viewBox="0 0 33 32" fill="none" xmlns="http://www.w3.org/2000/svg">
<path d="M30.5 26.0001H28.5V12.0001C28.5 11.4696 28.2893 10.9609 27.9142 10.5859C27.5391 10.2108 27.0304 10.0001 26.5 10.0001H18.5V4.00008C18.5002 3.63791 18.4021 3.28247 18.2161 2.9717C18.0301 2.66094 17.7633 2.40651 17.444 2.23557C17.1247 2.06463 16.765 1.9836 16.4032 2.00112C16.0415 2.01865 15.6913 2.13407 15.39 2.33508L5.39 9.00008C5.11567 9.1831 4.89086 9.43112 4.73558 9.72206C4.5803 10.013 4.49937 10.3378 4.5 10.6676V26.0001H2.5C2.23478 26.0001 1.98043 26.1054 1.79289 26.293C1.60536 26.4805 1.5 26.7349 1.5 27.0001C1.5 27.2653 1.60536 27.5197 1.79289 27.7072C1.98043 27.8947 2.23478 28.0001 2.5 28.0001H30.5C30.7652 28.0001 31.0196 27.8947 31.2071 27.7072C31.3946 27.5197 31.5 27.2653 31.5 27.0001C31.5 26.7349 31.3946 26.4805 31.2071 26.293C31.0196 26.1054 30.7652 26.0001 30.5 26.0001ZM26.5 12.0001V26.0001H18.5V12.0001H26.5ZM6.5 10.6676L16.5 4.00008V26.0001H6.5V10.6676ZM14.5 14.0001V16.0001C14.5 16.2653 14.3946 16.5197 14.2071 16.7072C14.0196 16.8947 13.7652 17.0001 13.5 17.0001C13.2348 17.0001 12.9804 16.8947 12.7929 16.7072C12.6054 16.5197 12.5 16.2653 12.5 16.0001V14.0001C12.5 13.7349 12.6054 13.4805 12.7929 13.293C12.9804 13.1054 13.2348 13.0001 13.5 13.0001C13.7652 13.0001 14.0196 13.1054 14.2071 13.293C14.3946 13.4805 14.5 13.7349 14.5 14.0001ZM10.5 14.0001V16.0001C10.5 16.2653 10.3946 16.5197 10.2071 16.7072C10.0196 16.8947 9.76522 17.0001 9.5 17.0001C9.23478 17.0001 8.98043 16.8947 8.79289 16.7072C8.60536 16.5197 8.5 16.2653 8.5 16.0001V14.0001C8.5 13.7349 8.60536 13.4805 8.79289 13.293C8.98043 13.1054 9.23478 13.0001 9.5 13.0001C9.76522 13.0001 10.0196 13.1054 10.2071 13.293C10.3946 13.4805 10.5 13.7349 10.5 14.0001ZM10.5 21.0001V23.0001C10.5 23.2653 10.3946 23.5197 10.2071 23.7072C10.0196 23.8947 9.76522 24.0001 9.5 24.0001C9.23478 24.0001 8.98043 23.8947 8.79289 23.7072C8.60536 23.5197 8.5 23.2653 8.5 23.0001V21.0001C8.5 20.7349 8.60536 20.4805 8.79289 20.293C8.98043 20.1054 9.23478 20.0001 9.5 20.0001C9.76522 20.0001 10.0196 20.1054 10.2071 20.293C10.3946 20.4805 10.5 20.7349 10.5 21.0001ZM14.5 21.0001V23.0001C14.5 23.2653 14.3946 23.5197 14.2071 23.7072C14.0196 23.8947 13.7652 24.0001 13.5 24.0001C13.2348 24.0001 12.9804 23.8947 12.7929 23.7072C12.6054 23.5197 12.5 23.2653 12.5 23.0001V21.0001C12.5 20.7349 12.6054 20.4805 12.7929 20.293C12.9804 20.1054 13.2348 20.0001 13.5 20.0001C13.7652 20.0001 14.0196 20.1054 14.2071 20.293C14.3946 20.4805 14.5 20.7349 14.5 21.0001Z" fill="#D0DBD6"/>
</svg>
