<svg width="33" height="32" viewBox="0 0 33 32" fill="none" xmlns="http://www.w3.org/2000/svg">
<path d="M23.6663 14.2762L27.3088 10.8487L27.33 10.8275C28.0802 10.0773 28.5017 9.05973 28.5017 7.99875C28.5017 6.93776 28.0802 5.92023 27.33 5.17C26.5798 4.41977 25.5622 3.99829 24.5013 3.99829C23.4403 3.99829 22.4227 4.41977 21.6725 5.17C21.6725 5.1775 21.6588 5.18375 21.6513 5.19125L18.2238 8.83375L7.84876 5.05875C7.66994 4.99371 7.47628 4.98104 7.29052 5.02222C7.10475 5.0634 6.93459 5.15673 6.80001 5.29125L3.80001 8.29125C3.69547 8.39587 3.61544 8.52238 3.56568 8.66166C3.51593 8.80094 3.49769 8.94952 3.51227 9.0967C3.52686 9.24388 3.57391 9.38598 3.65004 9.51279C3.72616 9.63959 3.82947 9.74793 3.95251 9.83L11.9388 15.1537L10.0863 17H7.50001C7.23515 17.0001 6.98115 17.1053 6.79376 17.2925L3.79376 20.2925C3.67676 20.4092 3.59051 20.5531 3.54272 20.7113C3.49494 20.8695 3.4871 21.0371 3.51991 21.199C3.55273 21.361 3.62517 21.5123 3.73076 21.6394C3.83636 21.7666 3.97181 21.8655 4.12501 21.9275L8.72751 23.7687L10.565 28.3625L10.5725 28.3825C10.6361 28.5364 10.7371 28.6719 10.8663 28.7769C10.9955 28.8819 11.1489 28.9529 11.3125 28.9836C11.4762 29.0142 11.6449 29.0036 11.8034 28.9525C11.9618 28.9015 12.105 28.8117 12.22 28.6912L15.2038 25.7062C15.2971 25.6138 15.3713 25.5038 15.4222 25.3826C15.473 25.2614 15.4995 25.1314 15.5 25V22.4137L17.345 20.5687L22.6688 28.555C22.7508 28.678 22.8592 28.7813 22.986 28.8575C23.1128 28.9336 23.2549 28.9806 23.4021 28.9952C23.5492 29.0098 23.6978 28.9916 23.8371 28.9418C23.9764 28.8921 24.1029 28.812 24.2075 28.7075L27.2075 25.7075C27.342 25.5729 27.4354 25.4028 27.4765 25.217C27.5177 25.0312 27.505 24.8376 27.44 24.6587L23.6663 14.2762ZM23.6575 26.43L18.3338 18.445C18.2521 18.321 18.144 18.2168 18.017 18.1398C17.8901 18.0628 17.7477 18.0151 17.6 18C17.5663 18 17.5338 18 17.5013 18C17.3698 18.0001 17.2397 18.026 17.1183 18.0764C16.9969 18.1268 16.8866 18.2007 16.7938 18.2937L13.7938 21.2937C13.6061 21.4809 13.5005 21.735 13.5 22V24.5862L11.8663 26.22L10.4288 22.625C10.3785 22.5002 10.3035 22.3868 10.2083 22.2917C10.1132 22.1965 9.99982 22.1215 9.87501 22.0712L6.28251 20.6337L7.91501 19H10.5C10.6314 19.0001 10.7615 18.9743 10.8829 18.9241C11.0043 18.8739 11.1146 18.8003 11.2075 18.7075L14.2075 15.7075C14.3123 15.6029 14.3925 15.4763 14.4424 15.3369C14.4923 15.1975 14.5106 15.0487 14.496 14.9014C14.4814 14.754 14.4343 14.6118 14.358 14.4849C14.2818 14.3579 14.1783 14.2495 14.055 14.1675L6.07001 8.8425L7.75751 7.15625L18.16 10.9387C18.3433 11.0061 18.5423 11.0183 18.7324 10.9739C18.9226 10.9295 19.0955 10.8303 19.23 10.6887L23.0975 6.575C23.4745 6.20906 23.9803 6.00614 24.5056 6.01009C25.031 6.01405 25.5337 6.22456 25.9051 6.59613C26.2765 6.96771 26.4868 7.47051 26.4905 7.99586C26.4943 8.52122 26.2911 9.02695 25.925 9.40375L21.8163 13.27C21.6747 13.4045 21.5756 13.5774 21.5311 13.7676C21.4867 13.9577 21.4989 14.1567 21.5663 14.34L25.3488 24.7425L23.6575 26.43Z" fill="#D0DBD6"/>
</svg>
