<svg width="33" height="32" viewBox="0 0 33 32" fill="none" xmlns="http://www.w3.org/2000/svg">
<path d="M16.5 2C13.3185 2.00364 10.2684 3.26909 8.01874 5.51874C5.76909 7.76839 4.50364 10.8185 4.5 14C4.5 17 6.07 20.8825 8.70125 24.375C11.3488 27.8937 14.2638 30 16.5 30C18.7362 30 21.6512 27.8988 24.2987 24.375C26.93 20.875 28.5 17 28.5 14C28.4964 10.8185 27.2309 7.76839 24.9813 5.51874C22.7316 3.26909 19.6815 2.00364 16.5 2ZM22.7013 23.1775C20.53 26.0612 18.0387 28 16.5 28C14.9613 28 12.47 26.0612 10.2987 23.1775C7.95625 20.0625 6.5 16.5463 6.5 14C6.5 11.3478 7.55357 8.8043 9.42893 6.92893C11.3043 5.05357 13.8478 4 16.5 4C19.1522 4 21.6957 5.05357 23.5711 6.92893C25.4464 8.8043 26.5 11.3478 26.5 14C26.5 16.5463 25.0438 20.0625 22.7013 23.1775ZM15.5 17C15.5 15.6739 14.9732 14.4021 14.0355 13.4645C13.0979 12.5268 11.8261 12 10.5 12C9.96957 12 9.46086 12.2107 9.08579 12.5858C8.71071 12.9609 8.5 13.4696 8.5 14C8.5 15.3261 9.02678 16.5979 9.96447 17.5355C10.9021 18.4732 12.1739 19 13.5 19C14.0304 19 14.5391 18.7893 14.9142 18.4142C15.2893 18.0391 15.5 17.5304 15.5 17ZM10.5 14C11.2956 14 12.0587 14.3161 12.6213 14.8787C13.1839 15.4413 13.5 16.2044 13.5 17C12.7044 17 11.9413 16.6839 11.3787 16.1213C10.8161 15.5587 10.5 14.7956 10.5 14ZM22.5 12C21.1739 12 19.9021 12.5268 18.9645 13.4645C18.0268 14.4021 17.5 15.6739 17.5 17C17.5 17.5304 17.7107 18.0391 18.0858 18.4142C18.4609 18.7893 18.9696 19 19.5 19C20.1566 19 20.8068 18.8707 21.4134 18.6194C22.02 18.3681 22.5712 17.9998 23.0355 17.5355C23.4998 17.0712 23.8681 16.52 24.1194 15.9134C24.3707 15.3068 24.5 14.6566 24.5 14C24.5 13.4696 24.2893 12.9609 23.9142 12.5858C23.5391 12.2107 23.0304 12 22.5 12ZM19.5 17C19.5 16.2044 19.8161 15.4413 20.3787 14.8787C20.9413 14.3161 21.7044 14 22.5 14C22.5 14.7956 22.1839 15.5587 21.6213 16.1213C21.0587 16.6839 20.2956 17 19.5 17ZM19.5 23C19.5 23.2652 19.3946 23.5196 19.2071 23.7071C19.0196 23.8946 18.7652 24 18.5 24H14.5C14.2348 24 13.9804 23.8946 13.7929 23.7071C13.6054 23.5196 13.5 23.2652 13.5 23C13.5 22.7348 13.6054 22.4804 13.7929 22.2929C13.9804 22.1054 14.2348 22 14.5 22H18.5C18.7652 22 19.0196 22.1054 19.2071 22.2929C19.3946 22.4804 19.5 22.7348 19.5 23Z" fill="#08BCA9"/>
</svg>
